<svg version="1.2" xmlns="http://www.w3.org/2000/svg" viewBox="0 0 1789 1789" width="1792" height="1792">
	<title>Detective Smoking</title>
	<style>
		.s0 { opacity: 1; fill: #03122e } 
		.s1 { opacity: 1; fill: #c3d0db } 
		.s2 { opacity: 1; fill: #000A28 } 
	</style>
	<g id="Background">
		<path id="Path 0" fill-rule="evenodd" class="s0" d="m-3 0h896.3c861.7-0.1 896.1 0 894.1 1.7-1.2 1-8.8 9-17 17.8-8.2 8.9-34.7 37.4-58.9 63.5-24.2 26-60 64.5-79.5 85.5-19.5 21-55.3 59.4-79.5 85.5-24.2 26.1-60 64.5-79.5 85.5-19.5 21-55.3 59.4-79.5 85.5-24.2 26.1-60 64.5-79.5 85.5-19.5 21-55.3 59.4-79.5 85.5-24.2 26.1-60 64.5-79.5 85.5-19.5 21-55.3 59.4-79.5 85.5-24.2 26.1-60 64.5-79.5 85.5-19.5 21-55.3 59.4-79.5 85.5-24.2 26.1-60 64.5-79.5 85.5-19.5 21-55.3 59.4-79.5 85.5-24.2 26.1-60 64.5-79.5 85.5-19.5 21-55.3 59.4-79.5 85.5-24.2 26.1-60 64.5-79.5 85.5-19.5 21-55.3 59.4-79.5 85.5-24.2 26.1-60 64.5-79.5 85.5-19.5 21-55.3 59.4-79.5 85.5-24.2 26.1-60 64.5-79.5 85.5-19.5 21-44 47.3-54.5 58.6-10.4 11.2-20 21.6-23.5 25.9h-126zm1791.5 1136.6l0.2 327.4c0.1 180.1 0.1 327.6-0.1 327.8-0.2 0.1-90.9 0.1-402.7-0.3l8.6-14c4.8-7.7 12.9-20.7 17.9-29 5.1-8.2 13.6-22 18.8-30.5 5.2-8.5 22.9-37.3 39.3-64 16.4-26.7 33.2-54.1 37.5-61 4.3-6.9 19.3-31.4 33.5-54.5 14.2-23.1 29.4-47.8 33.8-55 4.4-7.1 11.5-18.6 15.7-25.5 4.3-6.9 19.3-31.4 33.5-54.5 14.2-23.1 29.3-47.7 33.6-54.7 4.4-7.1 11.4-18.5 15.8-25.5 4.3-7.1 14.6-23.8 22.8-37.3 8.3-13.5 25.3-41.1 37.8-61.5 12.6-20.3 26.4-42.8 30.8-50 4.4-7.1 11.4-18.6 15.6-25.5z"/>
		<path id="Path 1" class="s1" d="m1767 23.2c-11.3 12.2-38.3 41.3-60 64.7-21.7 23.3-55.5 59.6-75 80.6-19.5 21-55.3 59.4-79.5 85.5-24.2 26.1-60 64.5-79.5 85.5-19.5 21-55.3 59.4-79.5 85.5-24.2 26.1-60 64.5-79.5 85.5-19.5 21-55.3 59.4-79.5 85.5-24.2 26.1-60 64.5-79.5 85.5-19.5 21-55.3 59.4-79.5 85.5-24.2 26.1-60 64.5-79.5 85.5-19.5 21-55.3 59.4-79.5 85.5-24.2 26.1-60 64.5-79.5 85.5-19.5 21-55.3 59.4-79.5 85.5-24.2 26.1-60 64.5-79.5 85.5-19.5 21-55.3 59.4-79.5 85.5-24.2 26.1-60 64.5-79.5 85.5-19.5 21-55.3 59.4-79.5 85.5-24.2 26.1-60 64.5-79.5 85.5-19.5 21-55.3 59.4-79.5 85.5-24.2 26.1-60 64.5-79.5 85.5-19.5 21-44.9 48.2-56.3 60.6-11.4 12.3-20.7 22.7-20.7 23.2 0 0.4 283.8 0.7 630.8 0.7h630.7c12.3-19.8 20.4-32.9 26-42 5.6-9.1 14.5-23.5 19.7-32 5.2-8.5 22.9-37.3 39.3-64 16.4-26.7 33.2-54.1 37.5-61 4.3-6.9 19.3-31.4 33.5-54.5 14.2-23.1 29.4-47.8 33.8-55 4.4-7.2 11.5-18.6 15.7-25.5 4.3-6.9 19.3-31.4 33.5-54.5 14.2-23.1 29.2-47.6 33.5-54.5 4.2-6.9 11.3-18.3 15.7-25.5 4.4-7.2 12.3-20 17.5-28.5 5.2-8.5 21.1-34.4 35.3-57.5 14.2-23.1 28.6-46.5 32-52 3.4-5.5 11.7-18.9 18.4-29.7l12.1-19.8c0-879.6-0.3-1135-0.7-1135-0.5 0-10 10-21.3 22.2z"/>
	</g>
	<path id="Path 0" fill-rule="evenodd" class="s2" d="m1428 444c3.1 0 5 0.4 4.5 0.9-0.6 0.5-3.3 1.6-6 2.4-2.8 0.9-7.7 3.4-11 5.5-3.3 2.2-6.9 4.9-8 6.1-1.1 1.2-1.7 2.2-1.3 2.1 0.5 0 2.7-1.5 5-3.3 2.4-1.8 6.8-4.3 9.8-5.6 4.1-1.8 7.2-2.4 12-2.3 3.6 0 8.2 0.8 10.3 1.6 2 0.9 3.7 1.9 3.7 2.3 0 0.5-2.2 0.4-4.8-0.1-3-0.5-6.7-0.4-10.2 0.4-3 0.6-6.8 1.6-8.3 2.3-2.4 1-1.4 1.2 7.5 1.2 5.7 0.1 15.9 0.9 22.8 1.9 6.9 1 15.9 2.9 20 4.2 4.7 1.4 10.1 4.1 14.5 7.2 3.8 2.7 10 8.1 13.7 12.1 6.2 6.5 7.7 7.5 17.5 11.6 6 2.4 14 6.6 17.8 9.3 3.8 2.7 8.5 6.7 10.2 9 1.8 2.3 3.1 4.5 2.8 4.9-0.3 0.5-1.5-0.2-2.8-1.3-1.2-1.2-4.1-3.4-6.5-5-2.3-1.6-4.4-2.6-4.7-2.2-0.3 0.5 0.3 1.2 1.2 1.7 1 0.4 4.9 4.4 8.7 8.7 6.1 6.9 7.6 8.1 12 9.2 2.8 0.7 7.5 2.9 10.5 5 3 2 7.4 6.2 9.8 9.2 2.3 3 4.8 6.9 5.4 8.5 0.9 2.7 0.5 2.4-5-2.7-3.4-3.2-6.6-5.8-7.1-5.8-0.5 0 0.8 2.4 3 5.3 2.2 2.8 5 7.7 6.1 10.7 1.2 3 3.5 7.5 5.2 10 1.7 2.5 4.2 7 5.5 10 1.3 3 3.1 8.4 3.9 12 1.1 4.7 1.4 9.2 0.9 16.5-0.3 5.5-1.2 12.5-1.9 15.5-0.8 3-1.9 7.2-2.5 9.3-0.7 2-1.5 3.7-2 3.7-0.4 0-1.3-2.6-3.5-11.5l-1.4 7.5c-0.7 4.1-2 10-2.9 13-0.9 3-3.3 9.1-5.3 13.5-2.1 4.4-6.7 12.5-10.4 18-3.6 5.5-9.9 14-13.8 19-4 5-10.6 12.8-14.6 17.5-4.9 5.6-7.3 9.3-7.3 11 0 1.4 0.7 8.6 1.5 16 0.9 7.4 2.4 22.7 3.5 34 1 11.3 2.2 20.8 2.7 21.2 0.4 0.3 18.1 11.1 39.3 23.9 21.2 12.8 43 26.1 48.5 29.7 5.5 3.5 15.2 10.2 33 23.2l2.7 13.2c1.5 7.3 4.3 24.6 6.3 38.3 1.9 13.8 4.7 33.1 6.1 43 1.4 9.9 4.1 27.2 5.9 38.5 1.9 11.3 5.7 32.4 8.5 47 2.7 14.6 7.9 41.8 11.4 60.5 3.6 18.7 8 42.3 10 52.5 1.9 10.2 5.3 30 7.5 44 2.2 14 4.7 31.1 5.5 38 0.9 6.9 2.3 18.9 4.6 41l-8.3 10.1c-4.5 5.6-12.6 15.6-18.1 22.3-5.4 6.6-12.2 15-15 18.6-2.9 3.6-5.5 7.1-5.9 7.8-0.5 0.8 3.8 3.4 14.1 8.3 8.1 3.9 26.6 12.7 41.2 19.6 14.6 6.9 32.5 15.4 53 25.3v392h-351.5c-280.5 0-351.5-0.3-351.5-1.2 0-0.7 1.6-13.2 3.5-27.8 2-14.6 5.8-42.7 8.6-62.5 2.8-19.8 7.5-51.7 10.5-71 3-19.2 6.1-39.7 7-45.5 0.8-5.8 4.4-28.7 8-51 3.6-22.3 7.8-48.6 9.4-58.5 1.5-9.9 4.9-29.7 7.4-44 2.5-14.3 6.6-37.9 9-52.5 2.5-14.6 5.9-34.2 7.5-43.5 1.6-9.3 4.6-26.2 6.6-37.5 1.9-11.3 5.3-29.7 7.5-41 2.1-11.3 4.1-22.4 4.4-24.7 0.5-3.2 0.3-4.2-0.6-3.9-0.7 0.3-6.7 2-13.3 3.9-6.6 2-19.4 5.6-28.5 8.1-9.1 2.5-20.4 5.5-34 9.1l-3.1-3c-1.7-1.7-6.8-8-11.3-14-4.5-6-10.7-14.8-13.7-19.5-3-4.7-7.1-11.2-9.1-14.5-2-3.3-8.6-15.7-14.7-27.5-6.2-11.8-16.6-32.5-23.3-46-6.6-13.5-16.3-33.3-21.6-44-5.2-10.7-12.6-26-16.5-34-3.8-8-12.3-25.7-18.8-39.5-10.9-23-11.7-25.2-10.3-27 0.8-1.1 9.8-10.4 19.9-20.7 10.2-10.4 18.8-18.6 19.3-18.4 0.4 0.2 1 4.4 1.4 9.2 0.4 4.9 2.1 14.1 3.7 20.4 2.1 8.4 2.6 11.7 1.8 12.2-0.7 0.4-7.3 1.8-14.7 3.2-7.4 1.4-16.2 3-19.5 3.5-4.8 0.7-5.3 0.9-2.2 1 2 0 8.1-0.6 13.5-1.4 5.3-0.8 12.4-2.2 15.7-3 3.3-0.9 11-3.4 17-5.6 6-2.3 15.3-6.2 20.5-8.8 5.2-2.6 12.2-6.5 15.5-8.8 3.3-2.2 8.9-6.5 12.4-9.4 3.5-3 8.3-8.1 10.7-11.4 2.4-3.3 5.4-8.8 6.8-12.2 1.4-3.5 2.6-7.2 2.6-8.3 0-1.7 0.7-2 4-2 3.2 0 4.2 0.4 4.9 2.3 0.5 1.2 4.1 14.3 8 29.2 4 14.9 12.8 46.4 19.6 70 6.9 23.7 13.3 45.7 14.3 49 1.7 5.3 1.8 7.5 1 18.5-0.5 6.9-0.8 18.3-0.2 38.5l8.3 17.5c4.6 9.6 9.4 19.8 10.8 22.5 1.3 2.8 2.1 3.9 1.8 2.5-0.3-1.4-2.1-10.4-4.1-20-1.9-9.6-4.4-22.9-5.4-29.5-1.2-7.2-1.6-12.4-1-13 0.5-0.6 2.1 1 4.2 4.5 1.9 3 4.4 7.1 5.7 9 1.3 1.9 2 2.6 1.6 1.5-0.4-1.1-1.3-4-2.2-6.5-0.8-2.5-4.2-11.4-7.4-19.7-3.2-8.4-5.9-15.8-5.9-16.3 0-0.5 1-1.2 2.3-1.4 1.2-0.3 6.9-1 12.7-1.7 5.8-0.6 10.6-1.2 10.7-1.3 0.2 0-3.8-1.6-8.7-3.3-5-1.8-9.2-3.6-9.4-4-0.2-0.5 1.4-3.7 3.6-7.3 2.1-3.6 4.2-7.1 4.6-7.8 0.6-1.1 3-1 13.4 0.5 8.4 1.2 13 1.5 13.6 0.8 0.5-0.5 3.3-9.5 6.3-20 3.9-13.9 6.7-21.7 10.4-29 2.9-5.5 7.9-14.4 11.3-19.7 3.4-5.4 6.7-9.8 7.2-9.8 0.7 0 0.7 1.3 0.1 3.8-0.5 2-1.6 8.4-2.5 14.2-0.8 5.8-1.7 13.2-2.6 22.5l3.1-8.5c1.7-4.7 7-19.5 11.9-33 6.9-19.3 10.5-31.8 17.3-59 4.7-19 10.1-41.6 15.7-66h3.3c1.7 0 10 0.7 18.2 1.5 8.3 0.8 17 1.7 24 2.5l11.4-13.5-22-14c-12-7.7-27.7-17.6-34.9-22-7.1-4.4-13-8.5-13-9 0-0.5 1.2-1.5 2.7-2.2 1.6-0.6 9.6-4.4 17.8-8.3 8.3-4 29.3-13.7 46.8-21.6 17.4-7.9 32.2-14.4 32.7-14.4 0.5 0 1 1 1 2.3 0 1.2 0.9 7.6 4.1 26.2l-2.3 1.5c-1.2 0.8-3 2.2-4 3-1.1 0.9-3.9 8.6-7.3 20-3 10.2-5.5 19-5.5 19.5 0 0.5 2.5-4.4 5.4-11 3-6.6 6.7-14.2 8.3-16.9 1.5-2.7 3.1-5 3.5-5.2 0.5-0.2 1.8 2 3 4.9 1.2 2.8 4.7 10.2 13.3 27.5l-1.9 2.9c-1.1 1.5-4.7 6.2-8 10.3-6 7.4-6.1 7.7-15.6 36-5.3 15.7-11.7 35.5-14.2 44-2.6 8.5-6.5 22-8.7 30-2.2 8-5.6 21.5-7.6 30-2 8.5-4.7 20.7-6.1 27-1.3 6.3-2.7 12.4-3 13.5q-0.6 2 0.4 1c0.5-0.5 1.9-3.7 3.2-7 1.2-3.3 4.8-12.3 8.1-20 3.3-7.7 8.6-19.8 11.7-26.8 3.1-7 6-12.7 6.4-12.7 0.5 0 0.8 0.2 0.8 0.5 0 0.3-1.1 5.3-2.6 11.3-1.4 5.9-4 17.7-5.9 26.2-1.8 8.5-4.7 22.9-6.3 32-1.7 9.1-3.7 21.2-4.6 27-0.9 5.8-2 13.8-2.6 17.8-0.5 3.9-1 9.9-1 13.2 0 3.3 0.7 9.5 1.6 13.8 0.9 4.2 3.1 12 4.9 17.2 1.9 5.2 10.2 24.6 18.5 43 8.3 18.4 19.2 42 24.3 52.5 5 10.5 12 24.6 15.5 31.5 3.5 6.9 8.5 16.3 11 21 2.5 4.7 8.4 15.3 13 23.5 4.7 8.3 13 22.2 18.5 31 5.6 8.8 13.5 21 17.6 27 4.1 6 10.9 15.7 22.8 32l-2.6 3.7c-1.4 2-9.1 11.6-17.1 21.3-8 9.8-20.1 24.5-26.8 32.9-6.8 8.3-12.6 15.4-12.8 15.9-0.2 0.4 0.4 2.8 1.3 5.3 1.2 2.9 1.4 4.8 0.8 5.2-0.6 0.4-2.9 3-5.2 5.7-2.9 3.4-4.2 6-4.2 8-0.1 1.7 0.6 5.7 1.5 9 0.8 3.3 2.6 9.4 3.9 13.5 1.3 4.1 3.7 11.1 5.5 15.5 1.7 4.4 5.8 13.2 8.9 19.5 3.2 6.3 8.4 15.9 11.7 21.3 3.2 5.4 8.4 13.1 11.4 17.2 3 4.1 6.1 7.5 6.7 7.5 0.7 0 5.6-3.3 10.8-7.2 5.3-4 9.6-7.5 9.6-7.8-0.1-0.3-2.1-2.5-4.7-5-2.5-2.5-7.8-8.5-11.9-13.5-4-5-10.3-13.5-14-19-3.6-5.5-10-16.7-14-25-4.1-8.2-8.7-19-10.4-24-1.6-5-3.2-10.6-3.6-12.5-0.6-3.4 0.1-4.3 14.6-21.5 8.3-9.9 22.8-27.2 32.3-38.5 9.4-11.3 20.3-24.5 24.1-29.3 3.8-4.8 7.1-8.7 7.2-8.7 0.2 0 2.8 4.4 5.9 9.8 3.1 5.3 8 13.7 10.9 18.7 2.8 5 6.4 11.1 7.8 13.8 1.5 2.6 2.9 4.6 3.2 4.5 0.2-0.2 0-1.9-0.5-3.8-0.6-1.9-2.6-12.3-4.5-23-1.9-10.7-4.2-24-5-29.5-0.8-5.5-1.1-10.5-0.6-11 0.4-0.5 5.9-7.3 12-15 6.2-7.7 11.6-14.1 11.9-14.2 0.4-0.1 3.2 2.9 6.2 6.8 3 3.8 5.5 6.9 5.5 6.9 0 0-0.3-2.8-0.7-6.3-0.3-3.4-1.1-15-1.8-25.7-0.6-10.7-1-19.6-0.8-19.8 0.2-0.1 11.1-0.2 48.3-0.1l-14.5-14.6c-8-8-14.3-14.5-14-14.6 0.3 0 1.4-0.3 2.5-0.5 1.1-0.3 23.6-0.8 50-1.1 26.4-0.4 46.4-1 44.5-1.3-1.9-0.4-12.3-2.6-23-4.9-10.7-2.3-23.4-5.1-28.3-6.1-4.8-1.1-8.7-2.5-8.7-3 0-0.5 12.5-7.8 55.5-31.1l-2.5-6.3c-2.3-5.8-2.7-6.3-4.5-5.3-1.1 0.6-7.7 4.8-14.8 9.4-7 4.6-18.7 12.2-25.9 17-7.3 4.7-19.1 12.2-26.3 16.6-7.2 4.4-17.8 11-23.8 14.8-5.9 3.8-10.5 7.4-10.2 7.9 0.3 0.5 3.7 2.2 7.5 3.8 3.9 1.5 7 2.9 7 3.2 0 0.3-4.6 3.2-10.2 6.5-5.6 3.3-10.4 6.7-10.8 7.5-0.4 0.8-1.8 3.8-3.1 6.5-1.3 2.8-6.5 11.1-11.5 18.5-4.9 7.4-11.7 17.1-15 21.5-3.3 4.4-10 13.3-15 19.8-4.9 6.5-9.6 12.9-10.4 14.3-0.8 1.3-1.8 2.3-2.1 2.1-0.4-0.1-2.7-2.7-5.1-5.7-2.4-3-8.7-11.3-14-18.5-5.2-7.2-14.4-20-20.3-28.5-6-8.5-17.4-25.4-25.3-37.5-8-12.1-16.2-24.7-18.2-28-2-3.3-9.6-15.5-16.7-27-7.1-11.5-17.4-28.7-22.8-38-5.4-9.3-13.5-24.2-18-33-4.4-8.8-8.9-18.5-9.9-21.5-1-3.1-2.1-9.9-2.3-15.5-0.4-5.9-0.1-12.9 0.6-17 0.7-3.8 2.8-11.7 4.8-17.5 1.9-5.8 7.1-17.9 11.6-27 4.5-9.1 11.3-21.7 15.1-28 3.8-6.3 11.4-18.2 16.9-26.5 5.5-8.2 12.9-18.8 22.8-32l-7.6 8c-4.2 4.4-12.2 13.6-17.8 20.5-5.5 6.9-13 17-16.6 22.5-3.5 5.5-9.3 15.4-12.7 22-3.4 6.6-8.3 17.2-11 23.5-2.6 6.3-4.9 11.7-5.1 12-0.1 0.3-0.5 0.3-0.8 0-0.2-0.3 0.2-3.9 1-8 0.7-4.1 2.3-11.8 3.5-17 1.2-5.2 4.2-17.8 6.7-28 2.5-10.2 5.8-23.5 7.5-29.5 1.6-6 7.2-25.2 12.5-42.5 5.2-17.3 13.7-44.4 18.9-60.2 5.2-15.9 9.7-28.8 10.2-28.8 0.4 0 4.9 6.4 19.4 28.5l12.3-12.3-36.3-37.7 13.7-14c7.5-7.6 18.1-18.5 23.6-24 5.5-5.6 15-14.8 21-20.5 6-5.7 16-14.6 22-20 6-5.3 14.8-12.7 19.5-16.4 4.7-3.8 9-7.3 9.5-7.8 0.5-0.6-0.1-0.5-1.5 0.2-1.4 0.7-8.1 3.7-15 6.6-6.9 2.8-22.8 9.7-35.5 15.2-12.7 5.5-29.7 13-38 16.7-8.2 3.8-18.4 8.3-22.5 10.2-4.1 1.8-7.7 3.5-7.9 3.8-0.2 0.3-0.9 0.5-1.5 0.5-0.6 0-2-5.8-3.3-13.7-1.2-7.6-3.4-21.4-4.8-30.8-1.3-9.4-2.7-18.5-3-20.2-0.4-2.8-2.2-4.5-11.7-11.7-6.2-4.6-15.3-10.9-20.3-14-5-3.1-14.7-8.6-21.7-12.1-11.3-5.7-12.8-6.8-12.8-9 0-1.4 0.7-5.5 1.6-9.2 0.9-3.8 2.2-8 3-9.5 1-2 2.6-3.1 5.7-3.9 2.3-0.5 6.2-1.6 8.7-2.4 2.5-0.8 5.6-2.3 9.5-5.3l-2.2-0.6c-1.3-0.3-3.1-2.3-4.2-4.3-1-2.1-2.1-5-2.5-6.5-0.4-1.8 0-4.1 1.2-6.4 1.2-2.5 2.6-3.8 4.6-4.3 1.6-0.3 3-0.9 3.2-1.3 0.2-0.5-0.3-1.4-1.1-2-0.9-0.7-1.6-2.1-1.5-3 0-1 1.1-3 4.8-7.3l3.9 1.8c2.1 1 3.9 1.6 3.9 1.5 0.1-0.2 0.5-2.9 1-6.1 0.7-4.2 0.6-6-0.3-6.5-0.6-0.4-2.6-4.1-4.4-8.2-1.7-4.1-3.4-10.1-3.8-13.2-0.6-5.6-0.6-5.7 2.4-6.8 1.7-0.6 10-2.9 18.5-5.1 8.5-2.2 18.1-4.8 21.3-5.7 5.5-1.6 5.9-1.9 6.8-5.7 0.6-2.2 1.5-5.6 2-7.5 0.5-1.9 2.1-5.4 3.4-7.7 2-3.5 2.9-4.2 4.8-3.8 1.2 0.3 7.8 1.4 14.7 2.5 6.9 1.1 12.8 2 13.3 2 0.4 0 0.5-0.8 0.3-1.7-0.2-1-0.7-3-1-4.5-0.6-2.6-0.1-3.1 6.2-7 3.7-2.3 10.7-6.1 24.7-12.6l-33.7-0.7-3.5-4c-1.9-2.2-4.7-6.5-6.1-9.5-2.1-4.3-2.7-7-2.7-12 0.1-4.8 0.7-7.9 2.6-12 1.4-3 4.2-7.3 6.2-9.5 2.1-2.2 3.9-3.8 4.2-3.5 0.3 0.3-0.6 2.9-2 5.8-1.4 2.8-2.5 6.6-2.5 8.2 0 2.8 0.2 2.7 4.3-3.2 2.3-3.3 6-7.4 8.2-9 2.2-1.5 6.7-3.9 10-5.3 3.8-1.6 8-2.5 11.5-2.5zm99.3 375c0.9 1.9 3 7.3 4.7 12 1.8 4.7 5.2 13.5 7.7 19.5l4.5 11c-7.1 27.9-10.1 42.1-11.2 49.5-1 7.4-2.4 18.5-3 24.5-0.6 6-0.8 11.2-0.6 11.5 0.3 0.3 1.7-3.3 3.1-8 1.5-4.7 5-14.4 7.7-21.5 2.8-7.1 7-17.5 9.5-23 2.4-5.5 6.5-13.6 9-18 2.6-4.4 5.2-8.8 6-9.7 1.1-1.6 0.9-2.2-1.7-4.5-1.6-1.6-2.9-3.4-3-4 0-0.7 0.3-1.3 0.8-1.3 0.4 0 5.9-1.1 12.2-2.5 6.3-1.4 12.5-2.8 13.8-3 1.7-0.4-2.1-2.7-15.5-9.7-9.8-5-22.5-12-28.3-15.4-5.8-3.5-12-7.4-13.9-8.6l-3.4-2.3zm5.1 208.5c-0.8 6.6-1.7 18.1-2 25.5-0.4 7.4-0.4 21.9 0 32.3 0.3 10.3 1 18.7 1.4 18.7 0.4 0 1.1-7.5 1.5-16.7 0.4-9.3 1.2-28.5 1.7-42.8 0.5-14.3 1.2-29 1.4-32.7 0.3-3.8 0.1-6.8-0.3-6.8-0.5 0-1.2 2.4-1.5 5.3-0.4 2.8-1.4 10.6-2.2 17.2zm-355.3 432c-0.6 2.8-1.9 10.4-3 17-1.1 6.6-2.9 19.4-4 28.5-1 9.1-2.5 21.2-3.1 27-0.7 5.8-1.1 11.2-0.8 12 0.2 0.8 3.6-14.9 7.6-35 3.9-20.1 7.4-38.1 7.7-40 0.3-1.9 1.4-9.1 2.5-16 1.1-6.9 2.7-18.5 3.6-25.9 0.8-7.4 1.3-13.7 1.1-14-0.3-0.3-2.8 8.9-5.5 20.4-2.8 11.5-5.5 23.3-6.1 26zm-93.1-1343.3c5.2 0.3 11.8 1.1 14.5 1.8 2.8 0.6 8.2 2.1 12 3.2 3.9 1.2 9 3.3 11.5 4.6 2.5 1.3 7.2 4 10.5 6 3.3 1.9 8.3 5.4 11 7.7 2.8 2.3 7.1 6.4 9.7 9.1 2.6 2.7 6.7 7.8 9.1 11.4 2.4 3.6 5.8 9 7.5 12 1.7 3 3.8 7.5 4.7 10 0.9 2.5 2.5 7.2 3.6 10.5 1.1 3.3 2.7 10.3 3.6 15.5 1 6.6 1.4 13.3 1 22-0.3 8.9-1.2 15.5-3.1 23-1.8 6.8-4.3 13.5-7.3 19-2.5 4.7-6.4 11-8.6 14-2.2 3-6.5 8-9.6 11-3.1 3.1-7.6 7.2-10.1 9.1-2.5 2-6.7 4.7-9.5 6.1-2.7 1.4-7.7 3.4-11 4.6-3.3 1.1-7.9 2.3-10.2 2.6-2.5 0.3-4.5 0.2-4.8-0.4-0.3-0.6 3-4.5 7.3-8.8 4.2-4.2 9.2-10 11.1-12.7 1.8-2.8 4.5-7.3 5.9-10 1.4-2.8 3.3-8.2 4.4-12 1-3.9 1.8-9 1.8-11.5 0-2.5-0.6-6.8-1.3-9.5-0.8-2.8-2.2-6.6-3.2-8.5-0.9-1.9-3.8-5.4-6.4-7.8-2.5-2.3-5-4.2-5.6-4.2-0.5 0 0.9 1.9 3.2 4.2 2.3 2.4 5.2 6.5 6.5 9.3 1.9 4.2 2.3 6.7 2.2 15 0 5.5-0.5 11.2-1.2 12.7-0.8 2-1.6 2.5-2.4 1.9-0.7-0.5-1.6-3.1-1.9-5.7-0.4-2.7-1.9-7.4-3.4-10.4-1.5-3-4.8-7.9-7.4-10.9-3.3-3.8-6.6-6.3-11.6-8.7-4.3-2.1-9.9-3.8-14.5-4.5-4.1-0.6-9.5-0.9-12-0.6-2.5 0.3-6.6 1.2-9.2 2.1-2.6 0.9-6.7 2.6-9 3.7-2.4 1.2-6.3 3.7-8.8 5.7-2.5 2-5.2 4.3-6 5.1-0.8 0.9-3.1 3.6-5.1 6.1-2 2.5-4.8 6.5-6.2 9-1.4 2.5-3.4 7.2-4.5 10.5-1.2 3.3-2.3 9.6-2.6 14-0.4 6.5-0.1 9.2 1.7 14.6 1.2 3.6 3.6 8.5 5.2 10.8 1.7 2.4 5.2 5.8 7.8 7.7 2.6 1.9 8.2 4.6 12.5 6 4.8 1.6 11.3 2.9 17.2 3.3 5.7 0.4 14.7 0.2 22.5-0.6 7.2-0.7 17.1-2.2 22-3.3 5-1.1 9.7-2.2 10.5-2.5 0.8-0.2 7.1-1.8 14-3.4 6.9-1.6 14.1-3.2 16-3.6 1.9-0.3 8.2-0.8 14-1.2 7.4-0.4 13.2 0 19.5 1.1 5.7 1 11.4 2.7 15.5 4.8 3.5 1.8 8.7 5.5 11.5 8.3 2.8 2.7 6.5 7.5 8.2 10.5 1.7 3 3.7 8 4.4 11 0.7 3 1.2 9.1 1.1 13.5-0.1 5-0.9 10.4-2.3 14.5-1.1 3.6-3.4 9-5 12-1.5 3-3.6 6.4-4.6 7.5-1 1.1-2.9 3.7-4.3 5.7-1.4 2.1-6.5 7.7-11.5 12.6-4.9 4.9-12.6 11.8-17 15.3-4.4 3.5-9.2 7.5-10.8 8.9-1.5 1.4-2.7 2.9-2.7 3.5 0 0.5-1.1 2.1-2.5 3.5-2.3 2.2-2.5 3.3-2.5 9.7 0 6.8 0.2 7.4 2.7 9 1.5 1 4.6 2 6.8 2.3 2.2 0.3 6.9 0.2 10.5-0.1 3.6-0.4 9.4-1 13-1.3 3.6-0.3 8.8 0 11.5 0.6 3.9 0.9 6 2.1 9.5 5.7 2.5 2.6 4.9 6 5.4 7.6 0.5 1.7 0.9 4.8 0.9 7 0 2.5-1.7 7.8-4.3 14-2.3 5.5-4.5 11.6-4.8 13.5-0.3 1.9 0 4.8 0.6 6.5 0.7 1.6 2.3 3.6 3.7 4.2 1.4 0.7 6.2 1.6 10.8 1.9 4.5 0.3 10.5 1.2 13.2 1.9 2.9 0.8 6.2 2.6 7.7 4.2 1.5 1.5 3.4 4.4 4.2 6.3 0.8 1.9 2.2 7.3 3.1 12 1 4.7 2.8 10.5 4 13 1.3 2.5 3.9 6.2 5.9 8.2 2 2.1 4.1 3.8 4.6 3.8 0.6 0 1 0.6 1.1 1.2 0 0.7 0.7 1.7 1.5 2.3 1.2 0.8 1 1-0.8 0.9-1.3-0.1-4.2-0.7-6.6-1.5-2.4-0.8-5.1-2.2-6-3.2-0.9-1-2.2-1.8-2.9-1.7-0.7 0-3.2-2.4-5.4-5.3-2.3-2.8-5.6-8.1-7.2-11.7-1.7-3.6-3.8-7.2-4.6-8.1-0.9-0.9-2.7-2.2-4.1-2.9-1.6-0.8-5.2-1.2-10-1-4.1 0.2-11.3 0.3-16 0.1-4.7-0.1-9.8-0.6-11.5-1.1-1.6-0.5-4.6-2.7-6.6-4.7-2-2.1-4.2-5.6-4.9-7.8-0.7-2.2-1.3-6.3-1.3-9 0-3.1 0.6-6 1.6-7.5 1-1.4 1.7-3.6 1.7-5 0-1.4 0.8-5 1.9-8 1-3 2-6.9 2.2-8.5 0.4-2.6 0.1-3-2.1-3.3-1.4-0.2-4.5 0.2-7 0.9-2.5 0.7-4.9 1.5-5.5 2-0.5 0.4-5.5 1.9-11 3.5-7 1.9-12.4 2.7-18 2.7-6 0-9.5-0.6-14.4-2.4-4.6-1.7-7.2-3.5-9.6-6.4-1.7-2.2-4-5.6-5-7.5-0.9-1.9-2-5.8-2.2-8.5-0.3-2.8 0-7.5 0.6-10.5 0.7-3 3.1-9.2 5.4-13.8 2.3-4.5 4.7-8.3 5.2-8.3 0.6 0.1 2.4-1.8 4-4.2 1.7-2.3 9.2-10.5 16.7-18.2 7.5-7.7 14.6-15.1 15.8-16.5 1.2-1.4 3.5-5.2 5.1-8.5 2.2-4.4 3-7.5 3.1-11.5 0-3.6-0.7-6.9-2-9.5-1.1-2.2-3-5-4.3-6.2-1.3-1.2-4.9-2.9-7.9-3.9-4.2-1.3-7.2-1.6-13.2-1.1-4.3 0.4-9.9 1.2-12.5 1.8-2.6 0.5-7.7 1.9-11.3 3.1-3.6 1.1-8.3 2.6-10.5 3.3-2.2 0.7-5.3 1.9-7 2.6-1.6 0.7-3.2 1.3-3.5 1.3-0.3 0.1-2.7 1-5.5 2-2.7 1-6.1 2.4-7.5 3.1-1.4 0.7-4.1 1.8-6 2.3-1.9 0.6-6 2-9 3.2-3 1.2-7.3 2.9-9.5 3.7-2.2 0.9-6.5 2.2-9.5 2.9-3 0.8-5.9 1.6-6.5 1.8-0.5 0.1-2.1 0.6-3.5 0.9-1.4 0.4-3.8 0.9-5.5 1.2-1.6 0.2-5 0.7-7.5 1.1-2.5 0.3-5.6 0.8-7 1-1.4 0.2-7.7 0.4-14 0.5-6.3 0-14.4-0.5-18-1.1-3.6-0.5-10.3-2.1-15-3.4-4.7-1.3-11.4-3.8-15-5.6-3.6-1.8-9.4-5.2-13-7.6-3.6-2.3-9.9-7.6-14.2-11.6-4.2-4-10.2-10.9-13.3-15.3-3.2-4.4-7.4-11.4-9.5-15.5-2-4.1-5.1-11.6-6.8-16.5-1.6-5-3.8-12.6-4.8-17-1-4.8-1.8-13.4-2-21.5-0.1-7.7 0.3-17.4 1.1-22.5 0.8-5 2.1-12.2 3-16 0.9-3.9 2.3-9 3.2-11.5 0.8-2.5 2.9-8.1 4.6-12.5 1.7-4.4 5.2-11.7 7.7-16.2 2.5-4.5 7.4-12.4 11-17.5 3.6-5 12.4-15.1 19.5-22.4 7.2-7.2 15.7-15.2 19-17.8 3.3-2.5 6.5-5 7-5.4 0.6-0.4 3.8-2.6 7.3-5 3.4-2.3 12.2-7.2 19.5-10.8 7.3-3.7 13.9-6.8 14.7-7 0.8-0.1 4-1.2 7-2.3 3-1.1 9.8-2.9 15-4.1 5.2-1.2 13.8-2.5 19-2.8 5.2-0.4 13.8-0.4 19 0zm61 12.8c0.6 0 3.3 1.1 6 2.5 2.8 1.4 7.6 4.6 10.8 7.2 3.1 2.6 6.2 5.2 6.7 5.7 0.6 0.6 2.6 3.1 4.6 5.6 1.9 2.5 4.9 6.7 6.7 9.5 1.7 2.7 4.7 8.4 6.5 12.5 1.9 4.1 4.2 10.4 5 14 0.9 3.6 1.9 8.5 2.3 11 0.3 2.5 0.6 9 0.6 14.5 0 5.5-0.5 12.9-1.2 16.5-0.6 3.6-1.8 9-2.7 12-0.8 3-1.7 5.8-1.9 6.2-0.2 0.5-1.1 0.5-2 0-1.1-0.5-1.4-1.4-0.9-3.2 0.4-1.4 1.2-6.1 1.9-10.5 0.7-4.8 0.9-12.4 0.5-19-0.4-6.1-1.2-13.7-1.9-17-0.7-3.3-2-8.5-3-11.5-0.9-3-3.5-9.1-5.8-13.5-2.2-4.4-5.7-10.5-7.8-13.6-2.2-3.1-6-8-8.5-11-2.6-3-7.5-7.7-10.8-10.4-3.4-2.8-6.1-5.6-6.1-6.3 0-0.6 0.5-1.2 1-1.2zm-214.3 49c0.1 0 0 0.4-0.2 1-0.3 0.5 0.1 1.1 0.8 1.3 0.7 0.2-1.3 2.9-4.4 6.2-3.1 3.3-7.6 8.6-10 11.7-2.4 3.2-5.7 7.7-7.3 10-1.6 2.4-3.1 3.7-3.3 3-0.1-0.6-0.7-1-1.3-0.7-0.5 0.3-1 0.3-1 0 0-0.3 1.3-3.1 2.9-6.3 1.6-3.1 4.7-8.1 7-11 2.3-2.8 6-6.9 8.2-9 2.3-2 5.1-4.2 6.3-4.9 1.2-0.7 2.2-1.2 2.3-1.3zm-66.5 53c0.5 0 1 0.4 1.3 1 0.3 0.5-0.6 4-1.9 7.7-1.3 3.8-2.7 9.5-3.2 12.8-0.4 3.3-0.8 10.3-0.9 15.5-0.2 5.2 0.3 13.1 1 17.5 0.7 4.4 2.5 11.6 4 16 1.6 4.4 4.7 12 7 17 2.3 4.9 5.9 11.7 8.1 15 2.1 3.3 5.4 7.7 7.4 9.8 2.3 2.5 3.2 4.1 2.5 4.8-0.6 0.6-2 0.6-4-0.2-1.6-0.6-5.9-3-9.5-5.3-3.6-2.4-8.4-6.8-10.7-9.7-2.4-3-4.6-5.9-5.1-6.4-0.5-0.6-2.1-3.5-3.7-6.5-1.6-3-3.8-9.3-5-14-1.6-5.9-2.3-12-2.4-20-0.1-7.3 0.4-14.8 1.5-20.5 0.9-5 2.8-12.2 4.1-16 1.4-3.9 3.9-9.6 5.6-12.8 1.7-3.1 3.5-5.7 3.9-5.7zm187.3 38.6c1.3 0.3 1.3 0.9-0.1 4.1-0.9 2.1-2.5 6.7-3.5 10.3-1 3.6-1.8 7.4-1.8 8.5-0.1 1.1-0.8 2-1.7 2-1.4 0-1.5-1-1-6.8 0.3-3.7 1.6-8.8 2.8-11.5 1.2-2.6 2.5-5.2 3-5.9 0.5-0.6 1.5-1 2.3-0.7zm-150.1 45.9c0.9 0 1.8 0.7 2.1 1.5 0.2 0.8 0.7 2.6 0.9 4 0.3 1.4 1.6 5.6 3 9.5 1.4 3.8 5.1 11.8 8.1 17.7 3 6 6 11.4 6.5 12 0.6 0.7 2.4 3.1 4.1 5.3 1.7 2.2 5.5 6.6 8.5 9.7 3 3.2 8.2 8 11.7 10.6 3.4 2.7 6.6 5.6 7 6.5 0.4 1 1.2 1.5 1.7 1.2 0.6-0.3 4.2 1.2 8 3.2 3.9 2.1 7.1 4.1 7 4.5 0 0.5-0.4 1-1 1.3-0.5 0.3-2.9-0.2-5.2-1.1-2.4-0.9-6-3-8-4.5-2.1-1.6-4.2-2.9-4.8-2.9-0.5 0-2.9-1.2-5.3-2.8-2.3-1.5-6.5-4.5-9.2-6.7-2.7-2.2-6.8-6-9.2-8.5-2.4-2.5-5.3-5.6-6.3-7-1.1-1.4-3.1-4.1-4.5-6-1.4-1.9-4.2-7.1-6.4-11.5-2.1-4.4-5-11.4-6.4-15.5-1.4-4.1-2.8-10.4-3.2-14-0.6-5.6-0.5-6.5 0.9-6.5zm304.5 4c2 0.4 5.8 1.6 8.4 2.8 2.6 1.2 5 2.8 5.3 3.4 0.2 0.7 1.1 1.3 1.9 1.3 0.8 0 3.4 2.1 5.6 4.7 2.3 2.7 5.3 7.3 6.6 10.3 1.4 3 2.7 7.7 3 10.5 0.4 3.8 0.2 5-0.8 5.1-0.8 0.1-2-1.8-2.8-4.5-0.7-2.5-3.1-7.6-5.2-11.4-2.1-3.7-5.9-8.4-8.4-10.5-2.5-2-7-5.1-10-6.7-3-1.7-5.2-3.4-4.7-3.8 0.4-0.5-0.1-0.6-1-0.3-1 0.4-1.7 0.1-1.6-0.5 0-0.7 1.3-0.9 3.7-0.4zm-98.8 67.9c1.1 0.1 1.4 0.6 1 1.5-0.3 0.8-4.4 3.2-9.1 5.4-4.7 2.1-12.8 5.5-18 7.4-5.2 2-10.4 3.6-11.5 3.7-1.1 0-2-0.5-2-1.4 0-0.9 1.9-2.1 4.5-3 2.5-0.9 6.5-2.5 9-3.8 2.5-1.2 5.1-2.2 5.8-2.2 0.7 0 3.1-1 5.5-2.2 2.3-1.3 6.2-3 8.7-3.9 2.5-0.8 5.2-1.5 6.1-1.5zm-283.1 4.6c0.5 0 1.1 4.8 1.4 10.7 0.4 6 0.6 13.7 0.6 17.3 0 3.6-0.7 9.4-1.6 13-0.9 3.6-4 11.6-7 17.7-2.9 6.2-5.7 11.3-6.1 11.3-0.4 0-0.5-1.9-0.1-4.3 0.4-2.3 0.9-10.3 1.3-17.7 0.4-7.4 1.1-16.9 1.7-21 0.6-4.1 1.8-9.8 2.8-12.5 1-2.8 2.8-7.1 4-9.8 1.2-2.6 2.6-4.7 3-4.7zm18 61c0.4 0 0.6 0.8 0.3 1.7-0.3 1-2.9 10.3-5.9 20.8-3 10.4-6.6 24.6-8 31.5-1.3 6.9-2.8 16.4-3.2 21.3-0.5 5.9-1.1 8.7-1.9 8.7-0.7 0-1.5-1-1.9-2.3-0.3-1.2-0.8-7.8-1.1-14.7-0.4-8-0.1-14.9 0.6-19 0.7-3.6 2.2-9.7 3.4-13.5 1.2-3.9 5-12.6 8.5-19.5 3.5-6.9 6.8-13.1 7.4-13.8 0.6-0.6 1.4-1.2 1.8-1.2zm11.6 28.3c0.2 0.3-0.6 4.7-1.6 9.9-1 5.1-2.6 14.7-3.5 21.3-0.8 6.6-2 23-3.6 61l-4.5 13.5c-3.7 10.7-4.5 14.4-4.1 18 0.3 2.5 1.2 6 2.1 7.7 0.9 1.8 3.4 5.2 5.6 7.5 2.2 2.4 3.8 4.4 3.5 4.5-0.3 0.2-1.7-0.3-3.2-1.1-1.5-0.8-4.7-3.2-7.1-5.3-2.6-2.2-5.6-6.3-7.3-9.8-1.6-3.3-3.3-9.2-3.9-13-0.5-3.9-1-11.6-1-17.3 0-6.4 0.9-15.5 2.5-24.5 1.3-7.8 4-19.4 5.8-25.7 1.9-6.3 4.7-14.7 6.2-18.5 1.6-3.9 5.3-11.9 8.3-17.9 3.1-5.9 5.7-10.6 5.8-10.3zm273.7 16.6c1.2 1.8 4.7 4.9 7.7 6.7 3 1.9 5.1 3.4 4.5 3.4-0.5 0-3-1.2-5.5-2.6-2.5-1.3-5.5-4-6.7-5.9-1.3-1.9-2.3-3.8-2.3-4.3 0-0.4 1.1 0.8 2.3 2.7zm-260 137.2c0.4 0 8.5 5.9 18 13.2 9.5 7.3 23.9 18.4 32 24.7 8.2 6.3 15.7 12.2 16.8 13 1.1 0.8 2.1 1.3 2.4 1 0.2-0.3 0.7-4.3 1.2-8.9 0.7-7 1.1-8.5 2.8-9.2 1.3-0.5 3.2-0.2 5.4 0.9 1.9 0.9 4.4 3 5.5 4.5 1.9 2.6 2.1 4.1 1.7 27.2l6.7 5c3.7 2.7 6.9 5.2 7.2 5.5 0.3 0.3 1.5 1.3 2.8 2.2 2.2 1.8 2.2 1.7 3.7-1.7 1.2-2.7 2.1-3.5 4-3.5 1.6 0 4 1.5 6.5 4 3.7 3.6 4 4.5 4.5 15.5l11 7.3c9.9 6.6 11.4 8 15 14 2.3 4 8.7 11.6 27.3 30.7l4.5 12c2.5 6.6 5.7 16.7 7.1 22.5 1.6 6.5 2.6 13.3 2.6 18 0 4.1-0.5 12.2-1.1 18-1 9.1-0.9 11.4 0.6 17.5 0.9 3.8 3.9 14.9 6.6 24.5 2.7 9.6 5.9 20.9 9.6 32.5l-2.3 3.5c-1.3 1.9-5 6.1-8.1 9.3-3.2 3.2-9.6 8.2-14.3 11.1-4.7 2.9-11.2 6.3-14.5 7.6-4.5 1.8-8.1 2.4-14.7 2.4-4.8 0.1-9.1-0.4-9.7-0.9-0.5-0.6-1.2-3-1.5-5.5-0.3-2.5-1.3-14.2-2.1-26-0.9-11.8-1.8-21.8-2.1-22.3-0.2-0.4-5.9-5.1-12.6-10.5-6.7-5.3-20.1-16.6-29.7-25-9.7-8.5-20.6-18.3-24.3-21.8-6.7-6.4-6.8-6.4-7.3-12.7-0.2-3.4-0.9-11.4-1.5-17.7-0.5-6.3-1-13.6-1-16.3 0-4.7 0-4.7 7.3-10.1 4-2.9 10.4-7.3 14.2-9.7 3.9-2.3 7.1-4.4 7.3-4.6 0.1-0.2-0.5-1.4-1.3-2.8-0.8-1.4-1.9-2.5-2.5-2.5-0.5 0-5 2.9-10 6.5-4.9 3.6-9.4 6.5-10 6.5-0.5 0-0.8-0.7-0.5-1.5 0.3-0.8 0.5-3.6 0.5-6.3 0-4 0.8-5.9 5.6-13.2 3.1-4.7 7.5-11 9.8-14 2.3-3 7.4-9.4 11.4-14.3 4-4.8 7.2-9 7.1-9.5 0-0.4-2.9-2.8-12.9-10.2l-0.1 18.5-9.4 11.2c-7.2 8.6-9.8 11-10.7 10.2-0.7-0.5-1.6-3.8-2-7.2-0.5-4.2-0.1-10.9 1.2-20.7 1.1-8 2.2-17.2 3.2-26.5l-7.3-5.5c-4-3-13.4-10.2-20.9-15.9-7.4-5.8-20-15.6-28-21.9-8-6.3-14.9-12.3-15.5-13.4-0.8-1.6-0.6-2.3 1-3.3 1.9-1.2 1.9-1.4 0.3-1.9-1-0.3-1.8-1.1-1.8-1.6 0-0.6 1-1.2 2.3-1.4 1.2-0.2 2.6-0.4 3-0.5zm97.7 121.1c0 0.7 1 3.8 2.1 6.8 1.9 5.4 2 5.5 6.7 6.2 2.6 0.3 10 2.7 16.5 5.2 6.4 2.5 12.4 4.6 13.2 4.6 1.2 0 0.7-1.5-1.7-6.1-1.8-3.3-5.8-8.6-8.9-11.7-3-3.2-6.7-7.5-8.1-9.7-1.5-2.2-3.1-5.9-3.6-8.3-0.5-2.3-1.1-4.2-1.3-4.2-0.2 0.1-3.6 3.7-7.6 8-4 4.4-7.3 8.6-7.3 9.2z"/>
</svg>